REM DIRINDEX 1\2,1\3,1\4,1\5
REM DIRNAME "folder01","folder02","folder03","folder04","folder05"
TITLE ""
FILE "P1Q_t_0759-0768.mp3" MP3
  TRACK 01 AUDIO
    TITLE "3:cjc173_3218"
    INDEX 01 00:00:00
  TRACK 02 AUDIO
    TITLE "0:"
    INDEX 01 00:01:23
  TRACK 03 AUDIO
    TITLE "4:cjc173_3219"
    INDEX 01 00:01:43
  TRACK 04 AUDIO
    TITLE "0:"
    INDEX 01 00:04:16
  TRACK 05 AUDIO
    TITLE "5:cjc173_3220"
    INDEX 01 00:04:36
  TRACK 06 AUDIO
    TITLE "0:"
    INDEX 01 00:07:63
  TRACK 07 AUDIO
    TITLE "3:cjc173_3221"
    INDEX 01 00:08:33
  TRACK 08 AUDIO
    TITLE "0:"
    INDEX 01 00:09:43
  TRACK 09 AUDIO
    TITLE "4:cjc173_3222"
    INDEX 01 00:09:66
  TRACK 10 AUDIO
    TITLE "0:"
    INDEX 01 00:12:15
  TRACK 11 AUDIO
    TITLE "5:cjc173_3223"
    INDEX 01 00:12:35
  TRACK 12 AUDIO
    TITLE "0:"
    INDEX 01 00:16:56
  TRACK 13 AUDIO
    TITLE "3:cjc173_3224"
    INDEX 01 00:17:26
  TRACK 14 AUDIO
    TITLE "0:"
    INDEX 01 00:18:40
  TRACK 15 AUDIO
    TITLE "4:cjc173_3225"
    INDEX 01 00:18:61
  TRACK 16 AUDIO
    TITLE "0:"
    INDEX 01 00:20:03
  TRACK 17 AUDIO
    TITLE "5:cjc173_3226"
    INDEX 01 00:20:25
  TRACK 18 AUDIO
    TITLE "0:"
    INDEX 01 00:24:05
  TRACK 19 AUDIO
    TITLE "3:cjc173_3227"
    INDEX 01 00:24:50
  TRACK 20 AUDIO
    TITLE "0:"
    INDEX 01 00:25:65
  TRACK 21 AUDIO
    TITLE "4:cjc173_3228"
    INDEX 01 00:26:10
  TRACK 22 AUDIO
    TITLE "0:"
    INDEX 01 00:27:54
  TRACK 23 AUDIO
    TITLE "5:cjc173_3229"
    INDEX 01 00:28:01
  TRACK 24 AUDIO
    TITLE "0:"
    INDEX 01 00:33:31
  TRACK 25 AUDIO
    TITLE "3:cjc173_3230"
    INDEX 01 00:34:03
  TRACK 26 AUDIO
    TITLE "0:"
    INDEX 01 00:35:26
  TRACK 27 AUDIO
    TITLE "4:cjc173_3231"
    INDEX 01 00:35:48
  TRACK 28 AUDIO
    TITLE "0:"
    INDEX 01 00:37:62
  TRACK 29 AUDIO
    TITLE "5:cjc173_3232"
    INDEX 01 00:38:07
  TRACK 30 AUDIO
    TITLE "0:"
    INDEX 01 00:42:15
  TRACK 31 AUDIO
    TITLE "3:cjc173_3233"
    INDEX 01 00:42:62
  TRACK 32 AUDIO
    TITLE "0:"
    INDEX 01 00:43:73
  TRACK 33 AUDIO
    TITLE "4:cjc173_3234"
    INDEX 01 00:44:21
  TRACK 34 AUDIO
    TITLE "0:"
    INDEX 01 00:48:31
  TRACK 35 AUDIO
    TITLE "5:cjc173_3235"
    INDEX 01 00:48:50
  TRACK 36 AUDIO
    TITLE "0:"
    INDEX 01 00:52:29
  TRACK 37 AUDIO
    TITLE "3:cjc173_3236"
    INDEX 01 00:53:03
  TRACK 38 AUDIO
    TITLE "0:"
    INDEX 01 00:54:14
  TRACK 39 AUDIO
    TITLE "4:cjc173_3237"
    INDEX 01 00:54:35
  TRACK 40 AUDIO
    TITLE "0:"
    INDEX 01 00:56:56
  TRACK 41 AUDIO
    TITLE "5:cjc173_3238"
    INDEX 01 00:57:02
  TRACK 42 AUDIO
    TITLE "0:"
    INDEX 01 01:01:14
  TRACK 43 AUDIO
    TITLE "3:cjc173_3239"
    INDEX 01 01:01:61
  TRACK 44 AUDIO
    TITLE "0:"
    INDEX 01 01:02:66
  TRACK 45 AUDIO
    TITLE "4:cjc173_3240"
    INDEX 01 01:03:15
  TRACK 46 AUDIO
    TITLE "0:"
    INDEX 01 01:05:06
  TRACK 47 AUDIO
    TITLE "5:cjc173_3241"
    INDEX 01 01:05:25
  TRACK 48 AUDIO
    TITLE "0:"
    INDEX 01 01:09:39
  TRACK 49 AUDIO
    TITLE "3:cjc173_3242"
    INDEX 01 01:10:09
  TRACK 50 AUDIO
    TITLE "0:"
    INDEX 01 01:11:30
  TRACK 51 AUDIO
    TITLE "4:cjc173_3243"
    INDEX 01 01:11:52
  TRACK 52 AUDIO
    TITLE "0:"
    INDEX 01 01:13:62
  TRACK 53 AUDIO
    TITLE "5:cjc173_3244"
    INDEX 01 01:14:05
  TRACK 54 AUDIO
    TITLE "0:"
    INDEX 01 01:18:52
  TRACK 55 AUDIO
    TITLE "3:cjc173_3245"
    INDEX 01 01:19:22
  TRACK 56 AUDIO
    TITLE "0:"
    INDEX 01 01:20:41
  TRACK 57 AUDIO
    TITLE "4:cjc173_3246"
    INDEX 01 01:20:64
  TRACK 58 AUDIO
    TITLE "0:"
    INDEX 01 01:22:63
  TRACK 59 AUDIO
    TITLE "5:cjc173_3247"
    INDEX 01 01:23:08
  TRACK 60 AUDIO
    TITLE "0:"
    INDEX 01 01:28:21
